<?xml version="1.0" encoding="UTF-8"?>
<svg xmlns="http://www.w3.org/2000/svg" xmlns:xlink="http://www.w3.org/1999/xlink" width="16px" height="16px" viewBox="0 0 16 16" version="1.1">
<g id="surface1">
<path style=" stroke:none;fill-rule:nonzero;fill:rgb(0%,0%,0%);fill-opacity:1;" d="M 7.945312 0.03125 C 7.710938 0.0742188 7.382812 0.203125 7.1875 0.332031 C 6.929688 0.5 4.417969 3.03125 4.289062 3.257812 C 3.824219 4.042969 3.9375 5.058594 4.558594 5.683594 C 4.789062 5.917969 5.050781 6.070312 5.335938 6.128906 C 5.546875 6.171875 5.929688 6.148438 6.113281 6.085938 L 6.242188 6.039062 L 6.695312 6.492188 L 7.152344 6.953125 L 3.867188 9.6875 C 2.0625 11.191406 0.523438 12.492188 0.449219 12.570312 C -0.0859375 13.164062 -0.140625 14.082031 0.3125 14.757812 C 0.488281 15.019531 0.988281 15.515625 1.238281 15.675781 C 1.675781 15.957031 2.277344 16.027344 2.757812 15.863281 C 3.011719 15.777344 3.257812 15.632812 3.421875 15.480469 C 3.476562 15.429688 4.753906 13.910156 6.261719 12.097656 L 9.007812 8.804688 L 9.914062 9.710938 L 9.859375 9.917969 C 9.773438 10.234375 9.804688 10.648438 9.933594 10.925781 C 10.058594 11.195312 10.210938 11.375 10.449219 11.554688 C 10.792969 11.808594 11.257812 11.96875 11.65625 11.96875 C 11.917969 11.96875 12.28125 11.878906 12.5625 11.742188 C 12.824219 11.617188 12.847656 11.597656 14.222656 10.222656 C 15.757812 8.683594 15.773438 8.667969 15.90625 8.136719 C 16.148438 7.179688 15.632812 6.136719 14.789062 5.875 C 14.539062 5.796875 14.144531 5.789062 13.90625 5.863281 L 13.742188 5.914062 L 10.054688 2.226562 L 10.109375 2.046875 C 10.183594 1.796875 10.164062 1.335938 10.066406 1.085938 C 9.898438 0.648438 9.460938 0.269531 8.960938 0.109375 C 8.671875 0.0195312 8.21875 -0.015625 7.945312 0.03125 Z M 8.726562 0.722656 C 9.023438 0.820312 9.289062 1.03125 9.414062 1.265625 C 9.507812 1.433594 9.507812 1.804688 9.425781 1.984375 C 9.332031 2.179688 6.183594 5.320312 6 5.402344 C 5.789062 5.5 5.464844 5.492188 5.257812 5.390625 C 4.867188 5.195312 4.601562 4.601562 4.679688 4.113281 C 4.753906 3.671875 4.753906 3.671875 6.195312 2.226562 C 7.554688 0.863281 7.671875 0.765625 7.988281 0.691406 C 8.210938 0.640625 8.523438 0.652344 8.726562 0.722656 Z M 11.429688 4.539062 L 13.1875 6.296875 L 10.3125 9.171875 L 6.78125 5.640625 L 8.210938 4.210938 C 8.996094 3.425781 9.648438 2.78125 9.65625 2.78125 C 9.664062 2.78125 10.460938 3.570312 11.429688 4.539062 Z M 14.675781 6.53125 C 14.851562 6.617188 15.078125 6.867188 15.175781 7.078125 C 15.351562 7.460938 15.34375 7.839844 15.15625 8.242188 C 15.070312 8.429688 14.945312 8.570312 13.820312 9.695312 C 13.136719 10.382812 12.507812 10.988281 12.421875 11.042969 C 12.199219 11.191406 12.015625 11.253906 11.765625 11.273438 C 11.242188 11.3125 10.757812 11.070312 10.554688 10.664062 C 10.472656 10.492188 10.460938 10.445312 10.476562 10.273438 C 10.484375 10.164062 10.523438 10.023438 10.554688 9.953125 C 10.59375 9.878906 11.277344 9.171875 12.273438 8.183594 C 13.53125 6.929688 13.945312 6.535156 14.03125 6.507812 C 14.226562 6.449219 14.527344 6.460938 14.675781 6.53125 Z M 8.085938 7.882812 L 8.53125 8.332031 L 5.828125 11.578125 C 4.339844 13.367188 3.054688 14.894531 2.96875 14.976562 C 2.753906 15.179688 2.527344 15.257812 2.1875 15.261719 C 1.78125 15.265625 1.628906 15.179688 1.179688 14.722656 C 0.882812 14.417969 0.808594 14.328125 0.75 14.171875 C 0.609375 13.804688 0.667969 13.378906 0.902344 13.078125 C 0.992188 12.960938 7.570312 7.445312 7.625 7.4375 C 7.632812 7.4375 7.839844 7.636719 8.085938 7.882812 Z M 8.085938 7.882812 "/>
<path style=" stroke:none;fill-rule:nonzero;fill:rgb(0%,0%,0%);fill-opacity:1;" d="M 9.988281 14.050781 C 9.339844 14.207031 8.835938 14.785156 8.753906 15.46875 C 8.722656 15.730469 8.757812 15.863281 8.882812 15.941406 C 8.980469 16 9.058594 16 12.398438 15.992188 L 15.8125 15.984375 L 15.894531 15.898438 C 16.054688 15.742188 16.015625 15.308594 15.808594 14.898438 C 15.679688 14.648438 15.328125 14.292969 15.085938 14.179688 C 14.710938 13.996094 14.742188 14 12.359375 14.003906 C 10.585938 14.007812 10.136719 14.011719 9.988281 14.050781 Z M 14.726562 14.742188 C 14.96875 14.855469 15.25 15.160156 15.25 15.3125 C 15.25 15.335938 14.339844 15.34375 12.359375 15.34375 C 10.050781 15.34375 9.46875 15.335938 9.46875 15.304688 C 9.46875 15.226562 9.679688 14.949219 9.808594 14.859375 C 10.113281 14.648438 10.035156 14.65625 12.421875 14.664062 C 14.566406 14.671875 14.578125 14.671875 14.726562 14.742188 Z M 14.726562 14.742188 "/>
</g>
</svg>
